<svg id="Layer_1" data-name="Layer 1" xmlns="http://www.w3.org/2000/svg" viewBox="0 0 357.7191 102.3758"><title>partner</title><polygon points="304.805 56.52 357.719 23.456 357.719 32.388 304.805 65.451 251.893 32.388 251.893 23.456 304.805 56.52" fill="#f8991c"/><path d="M308.9857,18.093a34.2618,34.2618,0,0,0-28.5475,15.284l.0484.0048c.4148-.3781.8364-.7486,1.271-1.11,14.849-12.3076,36.2832-9.6058,47.9959,5.9974L337.5448,33.4h.0057A34.2643,34.2643,0,0,0,308.9857,18.093" transform="translate(-4.1956 -2.9131)" fill="#f8991c"/><path d="M308.9857,33.2731a19.0924,19.0924,0,0,0-15.6231,8.1005,16.4285,16.4285,0,0,1,9.4931-3.0928c5.6862,0,10.789,3.0428,14.291,7.8683l7.5152-4.6972h.0036a19.0939,19.0939,0,0,0-15.68-8.1788" transform="translate(-4.1956 -2.9131)" fill="#f8991c"/><path d="M273.2211,19.939c21.7865-17.2465,52.6173-12.6253,69.0373,10.275l.1089.1677,8.0643-5.0239v.0013a49.4864,49.4864,0,0,0-82.8713-.03,59.7056,59.7056,0,0,1,5.6608-5.39" transform="translate(-4.1956 -2.9131)" fill="#f8991c"/><path d="M52.3415,86.7443V55.2093h10.355V86.36c0,7.5638,6.2508,9.5158,9.93,9.5158,7.8382,0,10.4026-4.62,10.4026-7.2591V55.2093h10.355v48.95H87.36l-3.9539-5.46a18.0269,18.0269,0,0,1-14.3082,6.5478C59.2139,105.2472,52.3415,98.6053,52.3415,86.7443Z" transform="translate(-4.1956 -2.9131)" fill="#fff"/><path d="M169.9506,37.76v66.3651h5.8816l3.7684-5.46a17.919,17.919,0,0,0,14.2464,6.5894c9.0986,0,16.9106-5.6481,16.9106-17.98V72.0249c0-12.3317-7.72-17.98-17.2783-17.98-6.6179,0-11.1216,3.0119-13.4185,5.9305V37.76ZM190.9372,95.841c-6.4,0-11.0351-3.0873-10.8742-9.7093l-.0022,0V72.717c0-5.3421,4.1656-9.2588,10.9683-9.2588a9.3567,9.3567,0,0,1,9.619,9.32V86.5213C200.6481,92.3577,195.8085,95.841,190.9372,95.841Z" transform="translate(-4.1956 -2.9131)" fill="#fff"/><path d="M131.22,37.7943V60.01c-2.2969-2.9185-6.8006-5.9305-13.4186-5.9305-9.5581,0-17.2783,5.6481-17.2783,17.98V87.3091c0,12.3316,7.8121,17.98,16.9107,17.98A17.9194,17.9194,0,0,0,131.68,98.7l3.7684,5.46H141.33V37.7943ZM110.6324,86.5561V72.8126a9.3568,9.3568,0,0,1,9.6191-9.32c6.8027,0,10.9683,3.9168,10.9683,9.2588V86.1662l-.0023,0c.161,6.622-4.4745,9.7093-10.8741,9.7093C115.4721,95.8757,110.6324,92.3924,110.6324,86.5561Z" transform="translate(-4.1956 -2.9131)" fill="#fff"/><path d="M217.7838,37.7942h10.3551v66.3651H217.7838Z" transform="translate(-4.1956 -2.9131)" fill="#fff"/><rect x="146.404" y="52.2962" width="10.355" height="48.9501" fill="#fff"/><circle cx="151.5815" cy="40.5072" r="5.89" fill="#fff"/><path d="M256.6315,95.8757c-7.06,0-10.5419-3.6715-10.5419-8.7549V83.0735h30.6872V72.06c0-11.2963-7.9078-17.98-20.1453-17.98-12.7075,0-20.8969,7.06-20.8969,18.168V87.3091c0,11.2962,8.1894,17.98,20.8969,17.98,9.5265,0,16.36-3.8346,19.2249-10.3893l-7.5138-4.6408C265.6721,94.0093,261.971,95.8757,256.6315,95.8757ZM246.09,72.06c0-5.0834,3.4819-8.5667,10.1654-8.5667s10.1668,3.4833,10.1668,8.5667v3.1061H246.09Z" transform="translate(-4.1956 -2.9131)" fill="#fff"/><path d="M25.6632,54.08c-10.0452,0-16.5587,4.05-19.0906,10.1429l8.0913,5.0353c3.3795-5.3794,6.6084-5.7651,10.9993-5.7651,6.307,0,9.2255,3.0127,9.2255,7.8137v3.826l-8.681.0129c-6.3325,0-22.0121,2.1526-22.0121,15.741,0,9.602,7.2535,14.4023,16.1018,14.4023A19.37,19.37,0,0,0,35.2652,98.7l3.9532,5.46h6.0254V70.6477C45.2438,61.0457,38.8419,54.08,25.6632,54.08Zm9.2255,34.4058a4.82,4.82,0,0,1-1.1416,3.0022c-1.58,2.2442-5.5237,4.3879-10.2129,4.3879-4.8951,0-8.4715-1.9766-8.4715-6.1187,0-5.87,9.5237-7.1442,15.3694-7.3745h4.4566Z" transform="translate(-4.1956 -2.9131)" fill="#fff"/><path d="M212.5842,71.5068" transform="translate(-4.1956 -2.9131)" fill="#fff"/></svg>