<svg id="Ebene_1" data-name="Ebene 1" xmlns="http://www.w3.org/2000/svg" xmlns:xlink="http://www.w3.org/1999/xlink" viewBox="0 0 493.2353 89.5338"><defs><clipPath id="clip-path" transform="translate(-3.6406 3.433)"><polygon points="451.817 3.04 463.508 31.68 494.359 33.949 470.734 53.918 478.11 83.96 451.817 67.662 425.525 83.96 432.901 53.918 409.275 33.949 440.126 31.68 451.817 3.04" fill="none" stroke="#fff" stroke-miterlimit="10" stroke-width="2"/></clipPath></defs><title>stars</title><polygon points="42.543 69.917 17.805 85.252 24.745 56.988 2.517 38.199 31.543 36.065 42.543 9.119 53.542 36.065 82.568 38.199 60.34 56.988 67.28 85.252 42.543 69.917" fill="#fff"/><path d="M46.1829,8.3319,56.0223,32.436l.4685,1.1478,1.2365.0909L83.6922,35.584,63.8084,52.39l-.9469.8.2956,1.204,6.2078,25.2841L47.2366,65.9616l-1.0537-.6532-1.0538.6532L23.0009,79.6788l6.2078-25.2841.2956-1.204-.9469-.8L8.6736,35.584l25.9649-1.9093,1.2365-.0909.4685-1.1478L46.1829,8.3319m0-5.292L34.4918,31.68,3.6406,33.9487,27.2664,53.9178,19.89,83.96,46.1829,67.6615,72.4755,83.96,65.0994,53.9178,88.7252,33.9487,57.874,31.68,46.1829,3.04Z" transform="translate(-3.6406 3.433)" fill="#fff"/><polygon points="143.685 69.917 118.947 85.252 125.887 56.988 103.659 38.199 132.685 36.065 143.685 9.119 154.684 36.065 183.71 38.199 161.482 56.988 168.422 85.252 143.685 69.917" fill="#fff"/><path d="M147.3253,8.3319l9.8394,24.1041.4685,1.1478,1.2365.0909,25.9649,1.9093L164.9507,52.39l-.9468.8.2956,1.204,6.2078,25.2841L148.379,65.9616l-1.0537-.6532-1.0538.6532L124.1432,79.6788l6.2079-25.2841.2956-1.204-.9469-.8L109.816,35.584l25.9649-1.9093,1.2364-.0909.4686-1.1478,9.8394-24.1041m0-5.292L135.6342,31.68,104.783,33.9487l23.6258,19.9691L121.0327,83.96l26.2926-16.2986L173.6179,83.96l-7.3761-30.0423,23.6258-19.9691L159.0163,31.68,147.3253,3.04Z" transform="translate(-3.6406 3.433)" fill="#fff"/><polygon points="245.892 69.917 221.154 85.252 228.094 56.988 205.866 38.199 234.892 36.065 245.892 9.119 256.892 36.065 285.917 38.199 263.689 56.988 270.629 85.252 245.892 69.917" fill="#fff"/><path d="M249.5323,8.3319l9.8394,24.1041.4686,1.1478,1.2364.0909,25.9649,1.9093L267.1578,52.39l-.9469.8.2957,1.204,6.2078,25.2841L250.5861,65.9616l-1.0538-.6532-1.0537.6532L226.35,79.6788l6.2078-25.2841.2956-1.204-.9468-.8L212.023,35.584l25.9649-1.9093,1.2365-.0909.4685-1.1478,9.8394-24.1041m0-5.292-11.691,28.64L206.99,33.9487l23.6258,19.9691L223.24,83.96l26.2926-16.2986L275.8249,83.96l-7.376-30.0423,23.6257-19.9691L261.2234,31.68,249.5323,3.04Z" transform="translate(-3.6406 3.433)" fill="#fff"/><polygon points="332.431 56.988 310.202 38.199 339.229 36.065 350.229 9.119 361.228 36.065 390.254 38.199 368.025 56.988 374.965 85.252 350.229 69.917 325.491 85.252 332.431 56.988" fill="#fff"/><path d="M353.8687,8.3319l9.8394,24.1041.4685,1.1478,1.2365.0909L391.378,35.584,371.4942,52.39l-.9469.8.2956,1.204,6.2078,25.2841L354.9224,65.9616l-1.0537-.6532-1.0538.6532L330.6867,79.6788l6.2077-25.2841.2957-1.204-.9469-.8L316.3594,35.584l25.9649-1.9093,1.2365-.0909.4685-1.1478,9.8394-24.1041m0-5.292L342.1776,31.68l-30.8512,2.2686,23.6257,19.9691L327.5761,83.96l26.2926-16.2986L380.1613,83.96l-7.3761-30.0423L396.411,33.9487,365.56,31.68,353.8687,3.04Z" transform="translate(-3.6406 3.433)" fill="#fff"/><g clip-path="url(#clip-path)"><rect x="404.417" y="0.9999" width="42.7158" height="85.3022" fill="#fff"/><path d="M449.7731-1.433V81.8689H409.0576V-1.433h40.7155m2-2H407.0576V83.8689h44.7155V-3.433Z" transform="translate(-3.6406 3.433)" fill="#fff"/></g><polygon points="448.177 6.473 459.868 35.113 490.719 37.382 467.093 57.351 474.469 87.393 448.177 71.094 421.884 87.393 429.26 57.351 405.634 37.382 436.485 35.113 448.177 6.473" fill="none" stroke="#fff" stroke-miterlimit="10" stroke-width="2"/></svg>